:SAMPLES-PER-SECOND 30
:FULLY-SPECIFIED
:DEGREES
918
root  -69.7411 38.7612 0.723726 -152.612 -84.0314 147.663
RightUpLeg  13.0083 -1.35886 -9.06299
RightLeg  29.1384 7.29509 4.18037
RightFoot  -19.4029 0.842165 14.0765
RightToes  3.49245e-010 0 -3.6325e-017
Spine  3.28446 2.19295 -0.113099
Spine1  7.25859 2.29047 -1.29804
HEad  -15.0461 -0.958296 -3.20198
LeftShoulder1  -0.702277 5.08082 -38.2414
LeftArm  7.94028 7.66722 -34.9738
LeftForeArm  20.6817 -18.021 -5.95302
LeftHand  -0.020836 7.73736 1.07639
RightShoulder  -0.48992 -4.99373 26.0591
RightArm  9.4005 -5.74233 48.9944
RightForeArm  21.5434 4.06965 5.62859
RightHand  -0.121017 3.21974 -1.85417
LeftUpLeg  -21.256 4.86839 -1.7891
LeftLeg  21.7179 0.66843 0.630123
LeftFoot  5.21057 -0.602921 3.92161
LeftToes  -5.6298e-010 8.41567e-011 -1.83319e-011
919
root  -70.5959 38.8849 0.986238 -157.255 -81.8903 152.874
RightUpLeg  7.68017 0.441368 -10.8752
RightLeg  38.2097 8.49867 6.86189
RightFoot  -12.9427 0.194721 17.743
RightToes  3.49245e-010 0 -3.6325e-017
Spine  4.17446 2.23447 -0.832581
Spine1  6.07268 2.32235 -2.01891
HEad  -15.5486 -0.0221683 -3.92167
LeftShoulder1  -0.737581 5.18194 -37.6584
LeftArm  6.91881 7.50874 -35.3551
LeftForeArm  21.5817 -19.5706 -4.95682
LeftHand  -0.0753003 8.65773 -0.948218
RightShoulder  -0.492967 -4.97867 26.5293
RightArm  10.0655 -7.58796 48.0586
RightForeArm  22.2486 3.96078 5.78761
RightHand  -0.0198384 3.18061 -0.512484
LeftUpLeg  -20.7465 5.95419 -2.46161
LeftLeg  22.744 1.74926 1.14412
LeftFoot  3.27274 -0.585201 4.40572
LeftToes  -5.6298e-010 8.41567e-011 -1.83319e-011
920
root  -71.3769 39.0593 1.22048 -160.879 -79.487 156.423
RightUpLeg  1.95924 3.13431 -12.0691
RightLeg  47.2201 8.00152 8.82198
RightFoot  -4.37978 -0.970362 15.4853
RightToes  3.49245e-010 0 -3.6325e-017
Spine  5.70183 2.12783 -1.00941
Spine1  5.08995 2.51333 -3.70922
HEad  -17.5022 1.08532 -4.14121
LeftShoulder1  -0.606971 4.95752 -35.5411
LeftArm  7.35753 7.67231 -36.1935
LeftForeArm  20.2611 -21.4696 -4.26442
LeftHand  -0.0973764 9.23802 -1.2923
RightShoulder  -0.692004 -5.48204 28.2947
RightArm  11.7043 -7.9143 46.4468
RightForeArm  21.9287 4.98121 6.33736
RightHand  -0.0669019 4.15113 -1.07571
LeftUpLeg  -19.148 7.44897 -3.02319
LeftLeg  22.8009 2.65573 1.56985
LeftFoot  1.89627 -0.57981 4.89512
LeftToes  -5.6298e-010 8.41567e-011 -1.83319e-011
921
root  -72.0205 39.1753 1.30629 -163.825 -77.8022 159.632
RightUpLeg  -3.37415 4.62659 -12.3605
RightLeg  53.7178 6.15577 8.5279
RightFoot  -1.56264 -1.16299 13.3735
RightToes  3.49245e-010 0 -3.6325e-017
Spine  6.2611 1.62956 -1.7887
Spine1  5.28888 2.10752 -4.8978
HEad  -18.5224 1.06818 -3.37591
LeftShoulder1  -0.456393 4.66863 -33.0134
LeftArm  6.71613 8.0335 -36.8691
LeftForeArm  18.3572 -23.7349 -4.10664
LeftHand  -0.0195912 8.13805 1.01172
RightShoulder  -0.835863 -5.79921 29.8166
RightArm  12.5756 -7.55328 45.6998
RightForeArm  20.7196 6.71917 6.62227
RightHand  -0.123272 4.88943 -1.70013
LeftUpLeg  -18.3253 9.19273 -3.04565
LeftLeg  23.1252 2.8205 1.67125
LeftFoot  0.522625 -0.527791 5.03904
LeftToes  -5.6298e-010 8.41567e-011 -1.83319e-011
922
root  -72.6395 39.3708 1.42361 -167.542 -77.1045 163.594
RightUpLeg  -7.61554 4.31649 -12.1449
RightLeg  57.3026 3.80808 5.96133
RightFoot  -4.14783 -0.873602 13.3932
RightToes  3.49245e-010 0 -3.6325e-017
Spine  7.02585 0.838116 -1.9256
Spine1  4.95943 1.25706 -4.85607
HEad  -18.8167 -0.0578858 -2.87644
LeftShoulder1  -0.304999 4.30629 -31.936
LeftArm  4.09899 8.25898 -37.0128
LeftForeArm  20.7241 -25.9106 -4.44891
LeftHand  -0.00669464 6.74171 2.21864
RightShoulder  -0.907422 -5.9667 30.2505
RightArm  12.9994 -7.62469 45.5036
RightForeArm  19.6452 9.2863 6.46357
RightHand  -0.104489 5.28673 -1.42583
LeftUpLeg  -17.2471 9.50933 -2.52049
LeftLeg  22.8509 3.41177 1.92458
LeftFoot  -0.326541 -0.469068 4.88708
LeftToes  -5.6298e-010 8.41567e-011 -1.83319e-011
923
root  -73.2234 39.6293 1.49175 -171.623 -76.8689 167.714
RightUpLeg  -10.7631 3.67222 -11.1887
RightLeg  57.7465 1.71717 2.50681
RightFoot  -4.58249 -0.646137 10.3676
RightToes  3.49245e-010 0 -3.6325e-017
Spine  7.73356 0.142023 -2.36294
Spine1  4.89426 0.334292 -3.77129
HEad  -19.0155 -1.24718 -2.32295
LeftShoulder1  -0.316825 4.3404 -31.7374
LeftArm  3.31416 7.20459 -36.3324
LeftForeArm  21.323 -27.554 -4.78548
LeftHand  -0.00602239 6.71186 2.41192
RightShoulder  -0.954237 -6.06971 30.6104
RightArm  14.5181 -7.33571 45.3566
RightForeArm  15.1891 11.6171 6.35978
RightHand  -0.231716 6.26081 -2.65666
LeftUpLeg  -15.5521 9.99163 -1.65512
LeftLeg  21.675 3.3843 1.68855
LeftFoot  -0.656511 -0.481777 5.18994
LeftToes  -5.6298e-010 8.41567e-011 -1.83319e-011
924
root  -73.7294 39.8576 1.48637 -172.078 -76.3845 169.008
RightUpLeg  -14.1944 3.23205 -10.6483
RightLeg  55.6254 -0.124443 -0.588128
RightFoot  -6.2758 -0.444838 9.08269
RightToes  3.49245e-010 0 -3.6325e-017
Spine  7.78494 -0.157275 -3.44592
Spine1  4.3986 -0.168028 -2.80282
HEad  -18.9873 -2.77969 -1.89467
LeftShoulder1  -0.337369 4.40581 -31.2796
LeftArm  1.48381 6.70458 -36.3834
LeftForeArm  22.8869 -29.4916 -5.14553
LeftHand  -0.00824938 6.74585 2.19268
RightShoulder  -0.977545 -6.13769 30.5406
RightArm  15.234 -7.64344 45.8659
RightForeArm  13.0078 14.0351 5.72916
RightHand  -0.228098 6.88501 -2.50701
LeftUpLeg  -14.6839 9.96191 -1.34336
LeftLeg  20.0388 4.03142 1.41181
LeftFoot  -0.639982 -0.460189 4.95286
LeftToes  -5.6298e-010 8.41567e-011 -1.83319e-011
925
root  -74.2599 40.0801 1.52888 -174.591 -75.8115 171.281
RightUpLeg  -15.0597 3.67875 -9.68589
RightLeg  49.8087 -1.48037 -2.23438
RightFoot  -7.01384 -0.33689 7.68247
RightToes  3.49245e-010 0 -3.6325e-017
Spine  8.49039 -0.44689 -2.56836
Spine1  4.15421 -0.212547 -3.38379
HEad  -18.9232 -4.57363 -1.0874
LeftShoulder1  -0.367907 4.49808 -30.8276
LeftArm  -0.590481 6.47004 -36.4569
LeftForeArm  24.6756 -31.7716 -5.58174
LeftHand  -0.00993783 6.34952 2.64133
RightShoulder  -1.02598 -6.25747 30.7008
RightArm  16.4842 -7.43879 46.4328
RightForeArm  11.6053 15.878 5.35032
RightHand  -0.229521 6.23868 -2.62376
LeftUpLeg  -12.5331 10.2518 -0.668948
LeftLeg  18.4296 4.63154 1.06723
LeftFoot  -0.81913 -0.483154 5.29579
LeftToes  -5.6298e-010 8.41567e-011 -1.83319e-011
926
root  -74.744 40.241 1.46859 -174.575 -75.5313 171.713
RightUpLeg  -15.2412 4.36693 -9.06214
RightLeg  40.6398 -2.32962 -2.41538
RightFoot  -8.37818 -0.26924 8.19388
RightToes  3.49245e-010 0 -3.6325e-017
Spine  8.25114 -0.556925 -2.72621
Spine1  4.09671 -0.220656 -3.45001
HEad  -18.6867 -6.52984 -0.342491
LeftShoulder1  -0.314816 4.36999 -30.2088
LeftArm  -1.22771 6.16169 -36.7475
LeftForeArm  24.4342 -33.24 -5.96929
LeftHand  -0.0249954 5.52945 2.82135
RightShoulder  -1.01628 -6.22942 30.7243
RightArm  17.4744 -7.37487 47.0927
RightForeArm  10.8634 17.5935 4.96124
RightHand  -0.234212 6.75274 -2.58601
LeftUpLeg  -11.3652 9.26074 -0.358739
LeftLeg  16.9689 5.82657 0.835187
LeftFoot  -0.769429 -0.505019 5.50388
LeftToes  -5.6298e-010 8.41567e-011 -1.83319e-011
927
root  -75.2415 40.3462 1.34497 -173.506 -76.0519 171.5
RightUpLeg  -14.1852 5.18841 -8.54206
RightLeg  28.3953 -2.92593 -1.83555
RightFoot  -9.01973 -0.247417 8.66587
RightToes  3.49245e-010 0 -3.6325e-017
Spine  7.46871 -0.839123 -3.31985
Spine1  4.14916 -0.566093 -2.69899
HEad  -18.7058 -8.00482 0.0720287
LeftShoulder1  -0.390494 4.57447 -30.3311
LeftArm  -2.48466 6.4906 -36.6738
LeftForeArm  25.9854 -36.204 -6.64182
LeftHand  -0.00673588 6.78658 2.38773
RightShoulder  -1.02467 -6.25573 30.6793
RightArm  19.1878 -7.08274 47.4804
RightForeArm  10.1386 19.294 4.69163
RightHand  -0.22018 7.1024 -2.39467
LeftUpLeg  -10.9582 8.76683 -0.276876
LeftLeg  15.9741 5.77156 0.448579
LeftFoot  -1.14489 -0.470646 5.34946
LeftToes  -5.6298e-010 8.41567e-011 -1.83319e-011
928
root  -75.734 40.4742 1.24013 -172.069 -76.9814 170.03
RightUpLeg  -11.6835 3.70048 -7.91323
RightLeg  15.993 0.365253 -0.710983
RightFoot  -6.18107 -0.338278 7.83558
RightToes  3.49245e-010 0 -3.6325e-017
Spine  7.245 -1.10595 -2.49488
Spine1  4.1494 -0.586081 -3.35355
HEad  -18.2715 -9.66562 0.340747
LeftShoulder1  -0.282583 4.28472 -30.0266
LeftArm  -2.05031 6.50718 -36.877
LeftForeArm  25.8387 -37.6088 -7.0435
LeftHand  -0.015113 5.76796 3.40424
RightShoulder  -1.0661 -6.34907 30.9045
RightArm  20.1787 -6.99456 47.7622
RightForeArm  10.2452 20.3298 4.52693
RightHand  -0.172604 6.42572 -2.03784
LeftUpLeg  -9.40039 7.78331 -0.481877
LeftLeg  14.3809 5.82444 0.272513
LeftFoot  -1.09255 -0.4744 5.35976
LeftToes  -5.6298e-010 8.41567e-011 -1.83319e-011
929
root  -76.1853 40.6849 1.09421 -168.941 -78.1099 167.282
RightUpLeg  -11.0502 -3.04025 -6.43703
RightLeg  10.1444 9.94386 -0.255804
RightFoot  0.278337 -0.358829 3.28674
RightToes  3.49245e-010 0 -3.6325e-017
Spine  6.00312 -1.31605 -1.5042
Spine1  4.97232 -0.565116 -3.73764
HEad  -18.0381 -11.67 1.01282
LeftShoulder1  -0.258785 4.22845 -29.5274
LeftArm  -2.52153 6.70187 -37.5939
LeftForeArm  26.8907 -39.1002 -7.40546
LeftHand  -0.0276959 5.34145 2.60199
RightShoulder  -1.19432 -6.5992 32.0523
RightArm  21.4895 -6.21369 47.4133
RightForeArm  9.42869 20.854 4.52461
RightHand  -0.214412 6.69883 -2.40013
LeftUpLeg  -7.71448 7.15139 -0.829643
LeftLeg  11.3906 5.29993 -0.246294
LeftFoot  -0.324339 -0.509912 5.30232
LeftToes  -5.6298e-010 8.41567e-011 -1.83319e-011
